<?xml version="1.0" encoding="UTF-8" standalone="no"?>
<!DOCTYPE svg PUBLIC "-//W3C//DTD SVG 1.1//EN" "http://www.w3.org/Graphics/SVG/1.1/DTD/svg11.dtd">
<svg width="100%" height="100%" viewBox="0 0 236 230" version="1.1" xmlns="http://www.w3.org/2000/svg" xmlns:xlink="http://www.w3.org/1999/xlink" xml:space="preserve" xmlns:serif="http://www.serif.com/" style="fill-rule:evenodd;clip-rule:evenodd;stroke-linejoin:round;stroke-miterlimit:2;">
    <g transform="matrix(1,0,0,1,-282.128,-347.101)">
        <g transform="matrix(8.10811,0,0,8.10811,-1777.03,-2217.73)">
            <g transform="matrix(6.24593,0,0,6.24593,-1408.53,-1733.78)">
                <g transform="matrix(0.123333,0,0,0.123333,268.917,332.086)">
                    <path d="M0,-27.453C-0.514,-27.929 -2.407,-29.316 -2.605,-29.472C-2.803,-29.631 -3.357,-29.71 -3.36,-29.907C-3.365,-30.105 -4.855,-30.658 -4.855,-30.658C-7.461,-31.569 -10.854,-30.263 -10.854,-30.263C-14.603,-28.283 -15.354,-26.979 -17.327,-24.883C-19.301,-22.786 -21.286,-18.22 -21.996,-13.947C-22.634,-10.108 -22.041,-5.921 -20.643,-2.65C-19.458,0.121 -16.103,2.492 -14.841,3.127C-13.579,3.759 -11.407,4.116 -7.659,2.729C-3.908,1.347 -0.709,-3.955 -0.278,-4.471C0.158,-4.983 0.828,-6.408 2.484,-10.602C4.143,-14.794 3.117,-17.961 2.999,-20.769C2.88,-23.578 0.511,-26.979 0,-27.453" style="fill:white;fill-rule:nonzero;"/>
                </g>
                <g transform="matrix(0.123333,0,0,0.123333,270.659,329.51)">
                    <path d="M0,15.066C0.49,14.707 1.066,14.285 1.312,13.707C1.525,13.203 1.092,11.742 0.414,11.742C0.529,11.854 0.656,11.955 0.776,12.062C-0.708,10.628 -0.225,7.317 -0.636,5.532C-1.631,1.216 -3.787,-2.628 -7.195,-5.496C-11.686,-9.272 -18.254,-11.608 -24.028,-9.678C-18.832,-11.013 -14.114,-7.77 -12.23,-2.967C-9.934,2.884 -11.023,9.672 -14.033,15.057C-16.4,19.294 -20.393,23.603 -25.547,23.939C-30.741,24.254 -34.018,19.685 -35.723,15.378C-34.445,22.422 -27.458,25.969 -20.856,26.377C-16.264,26.674 -11.502,25.491 -7.705,22.858C-4.625,20.721 -2.964,17.306 0,15.066C0.041,15.037 -0.048,15.103 0,15.066" style="fill:rgb(246,215,44);fill-rule:nonzero;"/>
                </g>
                <g transform="matrix(0.123333,0,0,0.123333,268.636,331.515)">
                    <path d="M0,-1.719C-3.006,-3.958 -6.01,-6.199 -9.017,-8.441C-8.713,-4.168 -8.408,0.107 -8.104,4.38C-8.081,4.698 -8.179,5.506 -8.005,5.805C-7.469,6.722 -5.514,5.443 -4.864,5.057C-2.965,3.926 -1.462,2.32 -0.31,0.438C0.02,-0.101 0.634,-1.172 0,-1.719" style="fill:rgb(51,200,197);fill-rule:nonzero;"/>
                </g>
                <g transform="matrix(0.123333,0,0,0.123333,268.876,329.927)">
                    <path d="M0,9.009C0.868,7.254 1.541,5.435 1.787,3.481C1.927,2.369 2.429,-0.247 1.247,-1.07C0.817,-1.37 -1.155,-0.165 -1.639,0.051C-2.883,0.602 -4.125,1.153 -5.369,1.702C-6.965,2.406 -8.559,3.199 -10.205,3.788C-8.508,5.015 -6.809,6.242 -5.114,7.469C-4.114,8.191 -3.113,8.914 -2.116,9.637C-1.181,10.311 -0.661,10.379 0,9.009" style="fill:rgb(245,176,43);fill-rule:nonzero;"/>
                </g>
                <g transform="matrix(0.123333,0,0,0.123333,268.428,330.071)">
                    <path d="M0,-11.941C-0.161,-11.139 -0.605,-10.46 -0.986,-9.744C-1.764,-8.279 -2.541,-6.813 -3.316,-5.349C-4.536,-3.05 -5.755,-0.753 -6.974,1.546C-6.734,1.592 -6.262,1.277 -6.052,1.189C-5.152,0.802 -4.256,0.41 -3.361,0.016C-0.902,-1.066 1.554,-2.157 4.008,-3.248C7.233,-4.684 2.084,-13.533 0,-11.941C-0.042,-11.735 0.137,-12.046 0,-11.941" style="fill:rgb(246,215,44);fill-rule:nonzero;"/>
                </g>
                <g transform="matrix(0.123333,0,0,0.123333,267.048,329.617)">
                    <path d="M0,-5.027C0.991,-3.873 1.294,-1.753 1.777,-0.36C2.362,1.324 2.947,3.008 3.531,4.693C5.403,0.993 7.276,-2.709 9.148,-6.409C9.409,-6.924 9.669,-7.441 9.93,-7.957C10.685,-9.446 9.511,-9.72 8.286,-9.687C6.898,-9.65 5.527,-9.269 4.266,-8.699C3.39,-8.302 -0.788,-6.207 0,-5.027" style="fill:rgb(246,215,44);fill-rule:nonzero;"/>
                </g>
                <g transform="matrix(0.123333,0,0,0.123333,266.571,329.042)">
                    <path d="M0,8.588C2.18,8.865 4.36,9.164 6.538,9.458C5.509,6.68 4.478,3.902 3.45,1.127C2.708,-0.87 1.321,1.817 0.801,2.781C0.155,3.976 -0.444,5.218 -0.867,6.513C-1.036,7.041 -1.188,7.593 -1.214,8.151C-1.002,8.713 -0.507,8.527 0,8.588C1.201,8.741 -0.328,8.547 0,8.588" style="fill:rgb(246,215,44);fill-rule:nonzero;"/>
                </g>
                <g transform="matrix(0.123333,0,0,0.123333,266.345,330.308)">
                    <path d="M0,7.637C0.059,8.011 0.16,8.46 0.456,8.727C2.729,5.698 5.585,3.08 8.01,0.172C6.668,-0.009 5.317,-0.141 3.97,-0.292C3.19,-0.378 0.627,-1.09 0.041,-0.378C-0.472,0.27 -0.226,2.357 -0.232,3.143C-0.244,4.633 -0.228,6.16 0,7.637C0.098,8.266 -0.218,6.216 0,7.637" style="fill:rgb(246,215,44);fill-rule:nonzero;"/>
                </g>
                <g transform="matrix(0.123333,0,0,0.123333,267.356,330.474)">
                    <path d="M0,14.939C1.399,14.939 1.218,13.804 1.163,12.885C1.064,11.303 0.965,9.721 0.865,8.139C0.697,5.427 0.528,2.712 0.358,0C-0.583,0.685 -1.397,1.908 -2.185,2.793C-3.471,4.241 -4.755,5.687 -6.036,7.139C-6.304,7.444 -6.583,7.746 -6.84,8.062C-7.549,8.925 -6.102,10.996 -5.592,11.626C-4.398,13.099 -2.025,14.939 0,14.939" style="fill:rgb(240,100,69);fill-rule:nonzero;"/>
                </g>
            </g>
        </g>
    </g>
</svg>
